Sparks-Dotline-Thick.ufo
<glyph name="parenleft" format="1">
	<unicode hex="0028"/>
	<advance width="300"/>
	<outline>
		<contour>
			<point x="56" y="246" type="curve"/>
			<point x="56" y="93"/>
			<point x="149" y="-6"/>
			<point x="268" y="-26" type="curve"/>
			<point x="268" y="54" type="line"/>
			<point x="197" y="72"/>
			<point x="140" y="135"/>
			<point x="140" y="246" type="curve"/>
			<point x="140" y="357"/>
			<point x="197" y="420"/>
			<point x="268" y="438" type="curve"/>
			<point x="268" y="518" type="line"/>
			<point x="149" y="498"/>
			<point x="56" y="399"/>
		</contour>
	</outline>
</glyph>
<glyph name="plus" format="1">
	<unicode hex="002B"/>
	<advance width="450"/>
	<outline>
		<contour>
			<point x="52" y="217" type="line"/>
			<point x="194" y="217" type="line"/>
			<point x="194" y="74" type="line"/>
			<point x="256" y="74" type="line"/>
			<point x="256" y="217" type="line"/>
			<point x="398" y="217" type="line"/>
			<point x="398" y="277" type="line"/>
			<point x="256" y="277" type="line"/>
			<point x="256" y="420" type="line"/>
			<point x="194" y="420" type="line"/>
			<point x="194" y="277" type="line"/>
			<point x="52" y="277" type="line"/>
		</contour>
	</outline>
</glyph>
<glyph name="zero" format="1">
	<unicode hex="0030"/>
	<advance width="450"/>
	<outline>
		<contour>
			<point x="227" y="66" type="curve" smooth="yes"/>
			<point x="310" y="66"/>
			<point x="334" y="147"/>
			<point x="334" y="252" type="curve" smooth="yes"/>
			<point x="334" y="358"/>
			<point x="306" y="434"/>
			<point x="223" y="434" type="curve" smooth="yes"/>
			<point x="140" y="434"/>
			<point x="116" y="354"/>
			<point x="116" y="248" type="curve"/>
			<point x="116" y="143"/>
			<point x="144" y="66"/>
		</contour>
		<contour>
			<point x="223" y="-10" type="curve" smooth="yes"/>
			<point x="100" y="-10"/>
			<point x="31" y="91"/>
			<point x="31" y="252" type="curve" smooth="yes"/>
			<point x="31" y="414"/>
			<point x="104" y="510"/>
			<point x="227" y="510" type="curve" smooth="yes"/>
			<point x="350" y="510"/>
			<point x="419" y="410"/>
			<point x="419" y="248" type="curve" smooth="yes"/>
			<point x="419" y="87"/>
			<point x="346" y="-10"/>
		</contour>
	</outline>
</glyph>
<glyph name="one" format="1">
	<unicode hex="0031"/>
	<advance width="450"/>
	<outline>
		<contour>
			<point x="49" y="0" type="line"/>
			<point x="417" y="0" type="line"/>
			<point x="417" y="72" type="line"/>
			<point x="274" y="72" type="line"/>
			<point x="274" y="501" type="line"/>
			<point x="205" y="501" type="line"/>
			<point x="172" y="463"/>
			<point x="99" y="420"/>
			<point x="51" y="405" type="curve"/>
			<point x="51" y="326" type="line"/>
			<point x="91" y="333"/>
			<point x="161" y="366"/>
			<point x="192" y="393" type="curve"/>
			<point x="192" y="72" type="line"/>
			<point x="49" y="72" type="line"/>
		</contour>
	</outline>
</glyph>
<glyph name="seven" format="1">
	<unicode hex="0037"/>
	<advance width="450"/>
	<outline>
		<contour>
			<point x="32" y="500" type="line"/>
			<point x="32" y="428" type="line"/>
			<point x="327" y="428" type="line"/>
			<point x="237" y="303"/>
			<point x="165" y="160"/>
			<point x="122" y="0" type="curve"/>
			<point x="209" y="0" type="line"/>
			<point x="251" y="160"/>
			<point x="323" y="307"/>
			<point x="420" y="442" type="curve"/>
			<point x="420" y="500" type="line"/>
		</contour>
	</outline>
</glyph>
<glyph name="question" format="1">
	<unicode hex="003F"/>
	<advance width="381"/>
	<outline>
		<contour>
			<point x="148" y="150" type="line"/>
			<point x="220" y="150" type="line"/>
			<point x="223" y="206" type="line"/>
			<point x="316" y="214"/>
			<point x="373" y="270"/>
			<point x="373" y="357" type="curve" smooth="yes"/>
			<point x="373" y="456"/>
			<point x="299" y="510"/>
			<point x="199" y="510" type="curve" smooth="yes"/>
			<point x="93" y="510"/>
			<point x="16" y="457"/>
			<point x="5" y="347" type="curve"/>
			<point x="88" y="347" type="line"/>
			<point x="98" y="407"/>
			<point x="138" y="436"/>
			<point x="196" y="436" type="curve" smooth="yes"/>
			<point x="251" y="436"/>
			<point x="288" y="406"/>
			<point x="288" y="357" type="curve" smooth="yes"/>
			<point x="288" y="296"/>
			<point x="249" y="270"/>
			<point x="144" y="268" type="curve"/>
		</contour>
		<contour>
			<point x="133" y="100" type="line"/>
			<point x="133" y="0" type="line"/>
			<point x="235" y="0" type="line"/>
			<point x="235" y="100" type="line"/>
		</contour>
	</outline>
</glyph>
<glyph name="bracketleft" format="1">
	<unicode hex="005B"/>
	<advance width="300"/>
	<outline>
		<contour>
			<point x="82" y="0" type="line"/>
			<point x="263" y="0" type="line"/>
			<point x="263" y="69" type="line"/>
			<point x="160" y="69" type="line"/>
			<point x="160" y="431" type="line"/>
			<point x="263" y="431" type="line"/>
			<point x="263" y="500" type="line"/>
			<point x="82" y="500" type="line"/>
		</contour>
	</outline>
</glyph>
<glyph name="asciicircum" format="1">
	<unicode hex="005E"/>
	<advance width="430"/>
	<outline>
		<contour>
			<point x="169" y="500" type="line"/>
			<point x="30" y="200" type="line"/>
			<point x="120" y="200" type="line"/>
			<point x="215" y="425" type="line"/>
			<point x="310" y="200" type="line"/>
			<point x="400" y="200" type="line"/>
			<point x="261" y="500" type="line"/>
		</contour>
	</outline>
</glyph>
<glyph name="m" format="1">
	<unicode hex="006D"/>
	<advance width="605"/>
	<outline>
		<contour>
			<point x="347" y="0" type="line"/>
			<point x="473" y="335" type="line"/>
			<point x="475" y="335" type="line"/>
			<point x="473" y="295"/>
			<point x="471" y="239"/>
			<point x="471" y="200" type="curve" smooth="yes"/>
			<point x="471" y="0" type="line"/>
			<point x="553" y="0" type="line"/>
			<point x="553" y="500" type="line"/>
			<point x="463" y="500" type="line"/>
			<point x="304" y="86" type="line"/>
			<point x="302" y="86" type="line"/>
			<point x="142" y="500" type="line"/>
			<point x="52" y="500" type="line"/>
			<point x="52" y="0" type="line"/>
			<point x="134" y="0" type="line"/>
			<point x="134" y="200" type="line" smooth="yes"/>
			<point x="134" y="239"/>
			<point x="132" y="295"/>
			<point x="130" y="335" type="curve"/>
			<point x="132" y="335" type="line"/>
			<point x="258" y="0" type="line"/>
		</contour>
	</outline>
</glyph>
<glyph name="s" format="1">
	<unicode hex="0073"/>
	<advance width="445"/>
	<outline>
		<contour>
			<point x="255" y="203" type="line" smooth="yes"/>
			<point x="316" y="192"/>
			<point x="340" y="175"/>
			<point x="340" y="136" type="curve" smooth="yes"/>
			<point x="340" y="91"/>
			<point x="301" y="63"/>
			<point x="230" y="63" type="curve" smooth="yes"/>
			<point x="147" y="63"/>
			<point x="105" y="105"/>
			<point x="100" y="155" type="curve"/>
			<point x="20" y="155" type="line"/>
			<point x="29" y="65"/>
			<point x="96" y="-10"/>
			<point x="227" y="-10" type="curve" smooth="yes"/>
			<point x="343" y="-10"/>
			<point x="423" y="45"/>
			<point x="423" y="145" type="curve" smooth="yes"/>
			<point x="423" y="218"/>
			<point x="377" y="263"/>
			<point x="287" y="279" type="curve" smooth="yes"/>
			<point x="199" y="295" type="line" smooth="yes"/>
			<point x="142" y="305"/>
			<point x="117" y="323"/>
			<point x="117" y="362" type="curve"/>
			<point x="117" y="408"/>
			<point x="151" y="437"/>
			<point x="214" y="437" type="curve" smooth="yes"/>
			<point x="290" y="437"/>
			<point x="322" y="403"/>
			<point x="328" y="353" type="curve"/>
			<point x="410" y="353" type="line"/>
			<point x="403" y="455"/>
			<point x="322" y="510"/>
			<point x="218" y="510" type="curve" smooth="yes"/>
			<point x="107" y="510"/>
			<point x="34" y="447"/>
			<point x="34" y="358" type="curve"/>
			<point x="34" y="280"/>
			<point x="80" y="235"/>
			<point x="167" y="219" type="curve" smooth="yes"/>
		</contour>
	</outline>
</glyph>
<glyph name="u" format="1">
	<unicode hex="0075"/>
	<advance width="494"/>
	<outline>
		<contour>
			<point x="361" y="196" type="line" smooth="yes"/>
			<point x="361" y="106"/>
			<point x="322" y="66"/>
			<point x="247" y="66" type="curve" smooth="yes"/>
			<point x="172" y="66"/>
			<point x="133" y="106"/>
			<point x="133" y="196" type="curve" smooth="yes"/>
			<point x="133" y="500" type="line"/>
			<point x="50" y="500" type="line"/>
			<point x="50" y="192" type="line" smooth="yes"/>
			<point x="50" y="46"/>
			<point x="128" y="-10"/>
			<point x="247" y="-10" type="curve" smooth="yes"/>
			<point x="366" y="-10"/>
			<point x="444" y="46"/>
			<point x="444" y="192" type="curve" smooth="yes"/>
			<point x="444" y="500" type="line"/>
			<point x="361" y="500" type="line"/>
		</contour>
	</outline>
</glyph>
<glyph name="x" format="1">
	<unicode hex="0078"/>
	<advance width="422"/>
	<outline>
		<contour>
			<point x="92" y="0" type="line"/>
			<point x="209" y="186" type="line"/>
			<point x="211" y="186" type="line"/>
			<point x="328" y="0" type="line"/>
			<point x="427" y="0" type="line"/>
			<point x="262" y="257" type="line"/>
			<point x="418" y="500" type="line"/>
			<point x="321" y="500" type="line"/>
			<point x="212" y="326" type="line"/>
			<point x="210" y="326" type="line"/>
			<point x="101" y="500" type="line"/>
			<point x="2" y="500" type="line"/>
			<point x="159" y="256" type="line"/>
			<point x="-5" y="0" type="line"/>
		</contour>
	</outline>
</glyph>
<glyph name="logicalnot" format="1">
	<unicode hex="00AC"/>
	<advance width="450"/>
	<outline>
		<contour>
			<point x="44" y="219" type="line"/>
			<point x="334" y="219" type="line"/>
			<point x="334" y="119" type="line"/>
			<point x="398" y="119" type="line"/>
			<point x="398" y="279" type="line"/>
			<point x="44" y="279" type="line"/>
		</contour>
	</outline>
</glyph>
<glyph name="registered" format="1">
	<unicode hex="00AE"/>
	<advance width="561"/>
	<outline>
		<contour>
			<point x="280" y="48" type="curve" smooth="yes"/>
			<point x="165" y="48"/>
			<point x="85" y="139"/>
			<point x="85" y="250" type="curve"/>
			<point x="85" y="361"/>
			<point x="165" y="452"/>
			<point x="280" y="452" type="curve" smooth="yes"/>
			<point x="395" y="452"/>
			<point x="476" y="361"/>
			<point x="476" y="250" type="curve" smooth="yes"/>
			<point x="476" y="139"/>
			<point x="395" y="48"/>
		</contour>
		<contour>
			<point x="280" y="-12" type="curve" smooth="yes"/>
			<point x="428" y="-12"/>
			<point x="543" y="102"/>
			<point x="543" y="250" type="curve" smooth="yes"/>
			<point x="543" y="398"/>
			<point x="428" y="512"/>
			<point x="280" y="512" type="curve" smooth="yes"/>
			<point x="132" y="512"/>
			<point x="18" y="398"/>
			<point x="18" y="250" type="curve" smooth="yes"/>
			<point x="18" y="102"/>
			<point x="132" y="-12"/>
		</contour>
		<contour>
			<point x="333" y="118" type="line"/>
			<point x="390" y="118" type="line"/>
			<point x="340" y="226" type="line"/>
			<point x="340" y="227" type="line"/>
			<point x="371" y="239"/>
			<point x="391" y="264"/>
			<point x="391" y="301" type="curve" smooth="yes"/>
			<point x="391" y="353"/>
			<point x="353" y="386"/>
			<point x="290" y="386" type="curve" smooth="yes"/>
			<point x="193" y="386" type="line"/>
			<point x="193" y="118" type="line"/>
			<point x="246" y="118" type="line"/>
			<point x="246" y="214" type="line"/>
			<point x="289" y="214" type="line"/>
		</contour>
		<contour>
			<point x="280" y="338" type="line" smooth="yes"/>
			<point x="318" y="338"/>
			<point x="333" y="326"/>
			<point x="333" y="300" type="curve" smooth="yes"/>
			<point x="333" y="274"/>
			<point x="318" y="263"/>
			<point x="280" y="263" type="curve" smooth="yes"/>
			<point x="246" y="263" type="line"/>
			<point x="246" y="338" type="line"/>
		</contour>
	</outline>
</glyph>
<glyph name="degree" format="1">
	<unicode hex="00B0"/>
	<advance width="306"/>
	<outline>
		<contour>
			<point x="153" y="477" type="curve" smooth="yes"/>
			<point x="188" y="477"/>
			<point x="213" y="504"/>
			<point x="213" y="538" type="curve" smooth="yes"/>
			<point x="213" y="572"/>
			<point x="190" y="600"/>
			<point x="153" y="600" type="curve" smooth="yes"/>
			<point x="118" y="600"/>
			<point x="93" y="572"/>
			<point x="93" y="538" type="curve" smooth="yes"/>
			<point x="93" y="504"/>
			<point x="118" y="477"/>
		</contour>
		<contour>
			<point x="153" y="411" type="curve" smooth="yes"/>
			<point x="81" y="411"/>
			<point x="25" y="466"/>
			<point x="25" y="538" type="curve" smooth="yes"/>
			<point x="25" y="610"/>
			<point x="81" y="666"/>
			<point x="153" y="666" type="curve" smooth="yes"/>
			<point x="225" y="666"/>
			<point x="281" y="610"/>
			<point x="281" y="538" type="curve" smooth="yes"/>
			<point x="281" y="466"/>
			<point x="225" y="411"/>
		</contour>
	</outline>
</glyph>
<glyph name="cedilla" format="1">
	<unicode hex="00B8"/>
	<advance width="281"/>
	<outline>
		<contour>
			<point x="106" y="5" type="line"/>
			<point x="83" y="-65" type="line"/>
			<point x="100" y="-84" type="line"/>
			<point x="107" y="-82"/>
			<point x="117" y="-80"/>
			<point x="126" y="-80" type="curve" smooth="yes"/>
			<point x="151" y="-80"/>
			<point x="169" y="-91"/>
			<point x="169" y="-111" type="curve" smooth="yes"/>
			<point x="169" y="-132"/>
			<point x="151" y="-142"/>
			<point x="123" y="-142" type="curve" smooth="yes"/>
			<point x="98" y="-142"/>
			<point x="77" y="-135"/>
			<point x="62" y="-127" type="curve"/>
			<point x="50" y="-160" type="line"/>
			<point x="69" y="-175"/>
			<point x="109" y="-187"/>
			<point x="137" y="-187" type="curve" smooth="yes"/>
			<point x="199" y="-187"/>
			<point x="231" y="-157"/>
			<point x="231" y="-110" type="curve" smooth="yes"/>
			<point x="231" y="-64"/>
			<point x="204" y="-36"/>
			<point x="160" y="-36" type="curve" smooth="yes"/>
			<point x="150" y="-36"/>
			<point x="136" y="-37"/>
			<point x="126" y="-40" type="curve"/>
			<point x="141" y="5" type="line"/>
		</contour>
	</outline>
</glyph>
<glyph name="onesuperior" format="1">
	<unicode hex="00B9"/>
	<advance width="215"/>
	<outline>
		<contour>
			<point x="99" y="223" type="line"/>
			<point x="165" y="223" type="line"/>
			<point x="165" y="500" type="line"/>
			<point x="106" y="500" type="line"/>
			<point x="88" y="480"/>
			<point x="47" y="457"/>
			<point x="20" y="448" type="curve"/>
			<point x="20" y="386" type="line"/>
			<point x="42" y="390"/>
			<point x="82" y="408"/>
			<point x="99" y="422" type="curve"/>
		</contour>
	</outline>
</glyph>
<glyph name="eth" format="1">
	<unicode hex="00F0"/>
	<advance width="487"/>
	<outline>
		<contour>
			<point x="25" y="225" type="line"/>
			<point x="277" y="225" type="line"/>
			<point x="277" y="285" type="line"/>
			<point x="25" y="285" type="line"/>
		</contour>
		<component base="d" xOffset="25"/>
	</outline>
</glyph>
<glyph name="oslash" format="1">
	<unicode hex="00F8"/>
	<advance width="516"/>
	<outline>
		<contour>
			<point x="260" y="66" type="curve" smooth="yes"/>
			<point x="168" y="66"/>
			<point x="112" y="133"/>
			<point x="112" y="248" type="curve"/>
			<point x="112" y="364"/>
			<point x="163" y="434"/>
			<point x="256" y="434" type="curve" smooth="yes"/>
			<point x="348" y="434"/>
			<point x="404" y="367"/>
			<point x="404" y="252" type="curve" smooth="yes"/>
			<point x="404" y="136"/>
			<point x="353" y="66"/>
		</contour>
		<contour>
			<point x="256" y="-10" type="curve" smooth="yes"/>
			<point x="386" y="-10"/>
			<point x="490" y="76"/>
			<point x="490" y="248" type="curve" smooth="yes"/>
			<point x="490" y="421"/>
			<point x="391" y="510"/>
			<point x="260" y="510" type="curve" smooth="yes"/>
			<point x="130" y="510"/>
			<point x="26" y="424"/>
			<point x="26" y="252" type="curve" smooth="yes"/>
			<point x="26" y="79"/>
			<point x="125" y="-10"/>
		</contour>
		<contour>
			<point x="44" y="11" type="line"/>
			<point x="88" y="-22" type="line"/>
			<point x="473" y="489" type="line"/>
			<point x="429" y="522" type="line"/>
		</contour>
	</outline>
</glyph>
<glyph name="endash" format="1">
	<unicode hex="2013"/>
	<advance width="440"/>
	<outline>
		<contour>
			<point x="44" y="217" type="line"/>
			<point x="396" y="217" type="line"/>
			<point x="396" y="277" type="line"/>
			<point x="44" y="277" type="line"/>
		</contour>
	</outline>
</glyph>
<glyph name="quoteleft" format="1">
  <advance width="212"/>
  <unicode hex="2018"/>
  <outline>
    <contour>
      <point x="103" y="394" type="line"/>
      <point x="103" y="434"/>
      <point x="119" y="455"/>
      <point x="157" y="461" type="curve"/>
      <point x="157" y="500" type="line"/>
      <point x="92" y="492"/>
      <point x="55" y="454"/>
      <point x="55" y="380" type="curve" smooth="yes"/>
      <point x="55" y="288" type="line"/>
      <point x="157" y="288" type="line"/>
      <point x="157" y="394" type="line"/>
    </contour>
  </outline>
</glyph>
<glyph name="ellipsis" format="1">
	<unicode hex="2026"/>
	<advance width="595"/>
	<outline>
		<contour>
			<point x="55" y="105" type="line"/>
			<point x="55" y="0" type="line"/>
			<point x="160" y="0" type="line"/>
			<point x="160" y="105" type="line"/>
		</contour>
		<contour>
			<point x="245" y="105" type="line"/>
			<point x="245" y="0" type="line"/>
			<point x="350" y="0" type="line"/>
			<point x="350" y="105" type="line"/>
		</contour>
		<contour>
			<point x="435" y="105" type="line"/>
			<point x="435" y="0" type="line"/>
			<point x="540" y="0" type="line"/>
			<point x="540" y="105" type="line"/>
		</contour>
	</outline>
</glyph>
<glyph name="minus" format="1">
	<unicode hex="2212"/>
	<advance width="450"/>
	<outline>
		<contour>
			<point x="49" y="217" type="line"/>
			<point x="401" y="217" type="line"/>
			<point x="401" y="277" type="line"/>
			<point x="49" y="277" type="line"/>
		</contour>
	</outline>
</glyph>
<glyph name="chart.dot" format="1">
	<advance width="170"/>
	<outline>
		<contour>
			<point x="85" y="-50" type="curve" smooth="yes"/>
			<point x="112" y="-50"/>
			<point x="135" y="-27"/>
			<point x="135" y="0" type="curve" smooth="yes"/>
			<point x="135" y="27"/>
			<point x="112" y="50"/>
			<point x="85" y="50" type="curve" smooth="yes"/>
			<point x="58" y="50"/>
			<point x="35" y="27"/>
			<point x="35" y="0" type="curve" smooth="yes"/>
			<point x="35" y="-27"/>
			<point x="58" y="-50"/>
		</contour>
	</outline>
</glyph>
<glyph name="line.flat" format="1">
	<advance width="350"/>
	<outline>
		<contour>
			<point x="85" y="-29" type="line"/>
			<point x="435" y="-29" type="line"/>
			<point x="435" y="29" type="line"/>
			<point x="85" y="29" type="line"/>
		</contour>
		<component base="chart.dot"/>
	</outline>
</glyph>
<glyph name="line.up.011" format="1">
	<advance width="350"/>
	<outline>
		<contour>
			<point x="85" y="-30" type="line"/>
			<point x="435" y="47" type="line"/>
			<point x="435" y="107" type="line"/>
			<point x="85" y="30" type="line"/>
		</contour>
		<component base="chart.dot"/>
	</outline>
</glyph>
<glyph name="line.up.016" format="1">
	<advance width="350"/>
	<outline>
		<contour>
			<point x="85" y="-31" type="line"/>
			<point x="435" y="81" type="line"/>
			<point x="435" y="143" type="line"/>
			<point x="85" y="31" type="line"/>
		</contour>
		<component base="chart.dot"/>
	</outline>
</glyph>
<glyph name="line.up.061" format="1">
	<advance width="350"/>
	<outline>
		<contour>
			<point x="85" y="-47" type="line"/>
			<point x="435" y="380" type="line"/>
			<point x="435" y="474" type="line"/>
			<point x="85" y="47" type="line"/>
		</contour>
		<component base="chart.dot"/>
	</outline>
</glyph>
<glyph name="line.up.062" format="1">
	<advance width="350"/>
	<outline>
		<contour>
			<point x="85" y="-48" type="line"/>
			<point x="435" y="386" type="line"/>
			<point x="435" y="482" type="line"/>
			<point x="85" y="48" type="line"/>
		</contour>
		<component base="chart.dot"/>
	</outline>
</glyph>
<glyph name="line.up.080" format="1">
	<advance width="350"/>
	<outline>
		<contour>
			<point x="121" y="0" type="line"/>
			<point x="471" y="560" type="line"/>
			<point x="399" y="560" type="line"/>
			<point x="49" y="0" type="line"/>
		</contour>
		<component base="chart.dot"/>
	</outline>
</glyph>
<glyph name="line.up.086" format="1">
	<advance width="350"/>
	<outline>
		<contour>
			<point x="121" y="0" type="line"/>
			<point x="471" y="602" type="line"/>
			<point x="399" y="602" type="line"/>
			<point x="49" y="0" type="line"/>
		</contour>
		<component base="chart.dot"/>
	</outline>
</glyph>
<glyph name="line.up.095" format="1">
	<advance width="350"/>
	<outline>
		<contour>
			<point x="120" y="0" type="line"/>
			<point x="470" y="665" type="line"/>
			<point x="400" y="665" type="line"/>
			<point x="50" y="0" type="line"/>
		</contour>
		<component base="chart.dot"/>
	</outline>
</glyph>
